<svg width="109" height="14" viewBox="0 0 109 14" fill="none" xmlns="http://www.w3.org/2000/svg">
<path d="M0.16333 7.10352C0.16333 5.11686 0.716715 3.57015 1.82349 2.46338C2.93026 1.35661 4.47144 0.803223 6.44702 0.803223C8.47241 0.803223 10.033 1.34831 11.1287 2.43848C12.2244 3.52311 12.7722 5.04492 12.7722 7.00391C12.7722 8.42611 12.5315 9.59375 12.05 10.5068C11.5741 11.4144 10.8824 12.1227 9.97485 12.6318C9.07284 13.1354 7.9467 13.3872 6.59644 13.3872C5.22404 13.3872 4.08683 13.1686 3.18481 12.7314C2.28833 12.2943 1.56063 11.6025 1.00171 10.6562C0.44279 9.70996 0.16333 8.52572 0.16333 7.10352ZM3.92358 7.12012C3.92358 8.34863 4.15047 9.23128 4.60425 9.76807C5.06356 10.3049 5.68612 10.5732 6.47192 10.5732C7.27987 10.5732 7.90519 10.3104 8.3479 9.78467C8.79061 9.25895 9.01196 8.31543 9.01196 6.9541C9.01196 5.80859 8.77954 4.97298 8.3147 4.44727C7.85539 3.91602 7.23006 3.65039 6.43872 3.65039C5.68058 3.65039 5.07186 3.91878 4.61255 4.45557C4.15324 4.99235 3.92358 5.88053 3.92358 7.12012ZM14.781 1.01074H21.0315C22.3928 1.01074 23.4111 1.33447 24.0862 1.98193C24.7668 2.62939 25.1072 3.55078 25.1072 4.74609C25.1072 5.97461 24.7364 6.93473 23.9949 7.62646C23.2589 8.3182 22.1327 8.66406 20.6165 8.66406H18.5579V13.1797H14.781V1.01074ZM18.5579 6.19873H19.4792C20.2042 6.19873 20.7133 6.07422 21.0066 5.8252C21.2999 5.57064 21.4465 5.24691 21.4465 4.854C21.4465 4.47217 21.3193 4.14844 21.0647 3.88281C20.8101 3.61719 20.3315 3.48438 19.6287 3.48438H18.5579V6.19873ZM33.2004 8.77197V6.24023H39.011V11.4282C37.8987 12.1864 36.9137 12.7038 36.0559 12.9805C35.2037 13.2516 34.191 13.3872 33.0178 13.3872C31.5735 13.3872 30.3948 13.141 29.4817 12.6484C28.5741 12.1559 27.8686 11.4227 27.365 10.4487C26.8669 9.47477 26.6179 8.35693 26.6179 7.09521C26.6179 5.76709 26.8918 4.61328 27.4397 3.63379C27.9875 2.64876 28.79 1.90169 29.8469 1.39258C30.6715 0.999674 31.781 0.803223 33.1755 0.803223C34.5203 0.803223 35.5247 0.924967 36.1887 1.16846C36.8583 1.41195 37.4117 1.79102 37.8489 2.30566C38.2916 2.81478 38.6236 3.46224 38.845 4.24805L35.2175 4.89551C35.0681 4.4362 34.8136 4.0848 34.4539 3.84131C34.0997 3.59782 33.6459 3.47607 33.0925 3.47607C32.268 3.47607 31.6095 3.76383 31.1169 4.33936C30.63 4.90934 30.3865 5.81413 30.3865 7.05371C30.3865 8.37077 30.6327 9.31152 31.1252 9.87598C31.6233 10.4404 32.315 10.7227 33.2004 10.7227C33.621 10.7227 34.0222 10.6618 34.4041 10.54C34.7859 10.4183 35.2231 10.2108 35.7156 9.91748V8.77197H33.2004Z" fill="#34411A"/>
<path d="M45.9753 1.01074H50.8396C51.8025 1.01074 52.5191 1.05225 52.9895 1.13525C53.4654 1.21273 53.8888 1.37874 54.2595 1.6333C54.6358 1.88786 54.9485 2.22819 55.1975 2.6543C55.4465 3.07487 55.571 3.54801 55.571 4.07373C55.571 4.64372 55.4161 5.16667 55.1062 5.64258C54.8018 6.11849 54.3868 6.47542 53.8611 6.71338C54.6026 6.9292 55.1726 7.2972 55.571 7.81738C55.9695 8.33757 56.1687 8.94906 56.1687 9.65186C56.1687 10.2052 56.0387 10.7448 55.7786 11.2705C55.524 11.7907 55.1726 12.2085 54.7244 12.5239C54.2817 12.8338 53.7338 13.0247 53.0808 13.0967C52.6713 13.141 51.6835 13.1686 50.1174 13.1797H45.9753V1.01074ZM48.4324 3.03613V5.8501H50.0427C51.0001 5.8501 51.595 5.83626 51.8274 5.80859C52.248 5.75879 52.5772 5.61491 52.8152 5.37695C53.0587 5.13346 53.1804 4.81527 53.1804 4.42236C53.1804 4.04606 53.0753 3.7417 52.865 3.50928C52.6602 3.27132 52.3531 3.12744 51.9436 3.07764C51.7001 3.04997 51.0001 3.03613 49.8435 3.03613H48.4324ZM48.4324 7.87549V11.1294H50.7068C51.5922 11.1294 52.1539 11.1045 52.3918 11.0547C52.7571 10.9883 53.0531 10.8278 53.28 10.5732C53.5125 10.3132 53.6287 9.96729 53.6287 9.53564C53.6287 9.17041 53.5401 8.86051 53.363 8.60596C53.186 8.3514 52.9286 8.16602 52.5911 8.0498C52.259 7.93359 51.5341 7.87549 50.4163 7.87549H48.4324ZM59.9788 7.05371L57.8621 6.67188C58.1 5.81966 58.5095 5.1888 59.0906 4.7793C59.6716 4.36979 60.5349 4.16504 61.6804 4.16504C62.7208 4.16504 63.4955 4.28955 64.0046 4.53857C64.5138 4.78206 64.8707 5.09473 65.0754 5.47656C65.2857 5.85286 65.3909 6.54736 65.3909 7.56006L65.366 10.2827C65.366 11.0575 65.4019 11.6302 65.4739 12.001C65.5514 12.3662 65.6925 12.7591 65.8972 13.1797H63.5896C63.5287 13.0247 63.454 12.7951 63.3655 12.4907C63.3267 12.3524 63.2991 12.2611 63.2825 12.2168C62.884 12.6042 62.4579 12.8947 62.0042 13.0884C61.5504 13.2821 61.0662 13.3789 60.5515 13.3789C59.644 13.3789 58.9273 13.1326 58.4016 12.6401C57.8814 12.1476 57.6213 11.5251 57.6213 10.7725C57.6213 10.2744 57.7403 9.83171 57.9783 9.44434C58.2162 9.05143 58.5483 8.7526 58.9744 8.54785C59.406 8.33757 60.0258 8.15495 60.8337 8C61.9239 7.79525 62.6793 7.60433 63.0999 7.42725V7.19482C63.0999 6.74658 62.9892 6.42839 62.7678 6.24023C62.5465 6.04655 62.1287 5.94971 61.5144 5.94971C61.0994 5.94971 60.7756 6.03271 60.5432 6.19873C60.3108 6.35921 60.1226 6.64421 59.9788 7.05371ZM63.0999 8.94629C62.801 9.0459 62.3279 9.16488 61.6804 9.30322C61.033 9.44157 60.6096 9.57715 60.4104 9.70996C60.106 9.92578 59.9539 10.1997 59.9539 10.5317C59.9539 10.8582 60.0756 11.1405 60.3191 11.3784C60.5626 11.6164 60.8725 11.7354 61.2488 11.7354C61.6694 11.7354 62.0706 11.597 62.4524 11.3203C62.7346 11.11 62.92 10.8527 63.0085 10.5483C63.0694 10.3491 63.0999 9.97005 63.0999 9.41113V8.94629ZM67.6155 13.1797V1.01074H69.948V7.46875L72.679 4.36426H75.551L72.5378 7.58496L75.7668 13.1797H73.2517L71.0354 9.22021L69.948 10.3574V13.1797H67.6155ZM76.9871 4.36426H79.137V5.56787C79.9062 4.63265 80.822 4.16504 81.8845 4.16504C82.449 4.16504 82.9387 4.28125 83.3538 4.51367C83.7688 4.74609 84.1091 5.09749 84.3748 5.56787C84.7621 5.09749 85.1799 4.74609 85.6282 4.51367C86.0764 4.28125 86.5551 4.16504 87.0642 4.16504C87.7117 4.16504 88.2595 4.29785 88.7078 4.56348C89.156 4.82357 89.4908 5.20817 89.7122 5.71729C89.8726 6.09359 89.9529 6.70231 89.9529 7.54346V13.1797H87.6204V8.14111C87.6204 7.26676 87.5401 6.70231 87.3796 6.44775C87.1638 6.11572 86.8318 5.94971 86.3835 5.94971C86.057 5.94971 85.7499 6.04932 85.4622 6.24854C85.1744 6.44775 84.9669 6.74105 84.8396 7.12842C84.7123 7.51025 84.6487 8.11621 84.6487 8.94629V13.1797H82.3162V8.34863C82.3162 7.49089 82.2747 6.9375 82.1917 6.68848C82.1086 6.43945 81.9786 6.25407 81.8015 6.13232C81.63 6.01058 81.3948 5.94971 81.0959 5.94971C80.7362 5.94971 80.4125 6.04655 80.1248 6.24023C79.837 6.43392 79.6295 6.71338 79.5022 7.07861C79.3805 7.44385 79.3196 8.0498 79.3196 8.89648V13.1797H76.9871V4.36426ZM94.0286 7.05371L91.9119 6.67188C92.1498 5.81966 92.5593 5.1888 93.1404 4.7793C93.7214 4.36979 94.5847 4.16504 95.7302 4.16504C96.7706 4.16504 97.5453 4.28955 98.0544 4.53857C98.5636 4.78206 98.9205 5.09473 99.1252 5.47656C99.3355 5.85286 99.4407 6.54736 99.4407 7.56006L99.4158 10.2827C99.4158 11.0575 99.4517 11.6302 99.5237 12.001C99.6012 12.3662 99.7423 12.7591 99.947 13.1797H97.6394C97.5785 13.0247 97.5038 12.7951 97.4153 12.4907C97.3765 12.3524 97.3489 12.2611 97.3323 12.2168C96.9338 12.6042 96.5077 12.8947 96.054 13.0884C95.6002 13.2821 95.116 13.3789 94.6013 13.3789C93.6938 13.3789 92.9771 13.1326 92.4514 12.6401C91.9312 12.1476 91.6711 11.5251 91.6711 10.7725C91.6711 10.2744 91.7901 9.83171 92.0281 9.44434C92.266 9.05143 92.5981 8.7526 93.0242 8.54785C93.4558 8.33757 94.0756 8.15495 94.8835 8C95.9737 7.79525 96.7291 7.60433 97.1497 7.42725V7.19482C97.1497 6.74658 97.039 6.42839 96.8176 6.24023C96.5963 6.04655 96.1785 5.94971 95.5642 5.94971C95.1492 5.94971 94.8254 6.03271 94.593 6.19873C94.3606 6.35921 94.1724 6.64421 94.0286 7.05371ZM97.1497 8.94629C96.8508 9.0459 96.3777 9.16488 95.7302 9.30322C95.0828 9.44157 94.6594 9.57715 94.4602 9.70996C94.1558 9.92578 94.0037 10.1997 94.0037 10.5317C94.0037 10.8582 94.1254 11.1405 94.3689 11.3784C94.6124 11.6164 94.9223 11.7354 95.2986 11.7354C95.7192 11.7354 96.1204 11.597 96.5022 11.3203C96.7844 11.11 96.9698 10.8527 97.0583 10.5483C97.1192 10.3491 97.1497 9.97005 97.1497 9.41113V8.94629ZM100.81 13.1797V11.3618L104.114 7.56836C104.656 6.94857 105.058 6.50863 105.318 6.24854C105.046 6.26514 104.69 6.2762 104.247 6.28174L101.134 6.29834V4.36426H108.422V6.01611L105.052 9.90088L103.865 11.1875C104.512 11.1488 104.914 11.1294 105.069 11.1294H108.679V13.1797H100.81Z" fill="white"/>
</svg>
